<svg width="120" height="20" viewBox="0 0 120 20" fill="none" xmlns="http://www.w3.org/2000/svg">
<path d="M15.0166 10.0283C15.0166 9.01979 14.7963 8.07729 14.3558 7.20075C13.9152 6.32422 13.3048 5.62677 12.5292 5.10368C11.7535 4.58058 10.8724 4.32139 9.89024 4.32139C8.9081 4.32139 8.0361 4.57587 7.26508 5.08954C6.49405 5.6032 5.89284 6.28652 5.45225 7.14892C5.01166 8.0066 4.79137 8.94439 4.79137 9.94816C4.79137 11.0085 5.01166 11.9698 5.45225 12.8369C5.89284 13.7041 6.50323 14.3968 7.29261 14.9057C8.07741 15.4194 8.97235 15.6739 9.96826 15.6739C10.932 15.6739 11.7994 15.4194 12.5659 14.9057C13.3369 14.3921 13.9335 13.7088 14.3649 12.8464C14.8009 11.9934 15.0166 11.0509 15.0166 10.0283ZM0 10.443C0 8.48256 0.426818 6.70594 1.28045 5.11781C2.13409 3.52969 3.31357 2.28087 4.81891 1.36664C6.32424 0.457116 8.01316 0 9.89024 0C11.6847 0 13.3415 0.438266 14.8606 1.3148C16.3843 2.19133 17.5867 3.3836 18.4771 4.89632C19.3628 6.40905 19.808 8.06315 19.808 9.86805C19.808 11.7436 19.3766 13.4543 18.5138 15C17.651 16.5457 16.4807 17.7663 15.0029 18.6569C13.5251 19.5523 11.8958 20 10.1197 20C8.36195 20 6.70976 19.5947 5.15853 18.7889C3.61189 17.983 2.36356 16.8473 1.41814 15.3911C0.472712 13.935 0 12.2856 0 10.443Z" fill="#4259A8"/>
<path d="M31.7315 10.0283C31.7315 9.01979 31.5112 8.07729 31.0706 7.20075C30.63 6.32422 30.0242 5.62677 29.244 5.10368C28.4684 4.58058 27.5872 4.32139 26.6051 4.32139C25.6229 4.32139 24.7509 4.57587 23.9799 5.08954C23.2089 5.6032 22.6077 6.28652 22.1671 7.14892C21.7265 8.0066 21.5062 8.94439 21.5062 9.94816C21.5062 11.0085 21.7265 11.9698 22.1671 12.8369C22.6077 13.7041 23.2181 14.3968 24.0075 14.9057C24.7923 15.4194 25.6826 15.6739 26.6831 15.6739C27.6469 15.6739 28.5143 15.4194 29.2807 14.9057C30.0517 14.3921 30.6484 13.7088 31.0798 12.8464C31.5158 11.9934 31.7315 11.0509 31.7315 10.0283ZM16.7148 10.443C16.7148 8.48256 17.1417 6.70594 17.9953 5.11781C18.8489 3.52969 20.0284 2.28087 21.5338 1.36664C23.0391 0.457116 24.7326 0 26.6097 0C28.3995 0 30.0609 0.438266 31.58 1.3148C33.1037 2.19133 34.3062 3.3836 35.1965 4.89632C36.0823 6.40905 36.5274 8.06315 36.5274 9.86805C36.5274 11.7436 36.096 13.4543 35.2332 15C34.3704 16.5457 33.2001 17.7663 31.7223 18.6569C30.2445 19.5523 28.6153 20 26.8391 20C25.0814 20 23.4292 19.5947 21.8825 18.7889C20.3359 17.983 19.0876 16.8473 18.1422 15.3911C17.1921 13.935 16.7148 12.2856 16.7148 10.443Z" fill="#FBAC2C"/>
<path d="M39.0655 11.9274V19.6371H34.2695V0.362854H39.0655V7.60602H45.2016V0.362854H49.9975V19.6371H45.2016V11.9274H39.0655Z" fill="#F26339"/>
<path d="M18.477 4.89632C18.4173 4.79736 18.3531 4.7031 18.2934 4.60414C18.1924 4.76908 18.0915 4.93873 17.9997 5.11781C17.1461 6.70593 16.7192 8.48256 16.7192 10.443C16.7192 12.2809 17.1919 13.9302 18.142 15.3911C18.1649 15.4288 18.1924 15.4665 18.22 15.5042C18.3255 15.3393 18.4265 15.1744 18.5183 15C19.3811 13.4543 19.8125 11.7436 19.8125 9.86804C19.8079 8.06314 19.3628 6.40433 18.477 4.89632Z" fill="#2B3990"/>
<path d="M59.6352 6.66823C58.6393 6.66823 57.7168 6.93213 56.8678 7.45993C56.0233 7.99245 55.3487 8.69933 54.853 9.59471C54.3528 10.4901 54.1049 11.4656 54.1049 12.5259C54.1049 13.5674 54.3482 14.5382 54.8392 15.4288C55.3303 16.3242 56.0004 17.0311 56.854 17.5495C57.7076 18.0726 58.6439 18.3318 59.6582 18.3318C60.7413 18.3318 61.7142 18.0773 62.577 17.5636C63.4398 17.0499 64.1145 16.3572 64.6056 15.4807C65.0966 14.6041 65.3399 13.6286 65.3399 12.5495C65.3399 11.4373 65.0966 10.4383 64.6056 9.54287C64.1145 8.64749 63.4353 7.94532 62.5633 7.43166C61.6959 6.9227 60.7183 6.66823 59.6352 6.66823ZM54.2105 0.362854V7.88877H54.261C54.8714 7.00282 55.647 6.30536 56.5924 5.7917C57.5378 5.27803 58.5613 5.02355 59.6627 5.02355C60.9983 5.02355 62.2374 5.34872 63.3802 5.99905C64.523 6.64938 65.4317 7.54476 66.1063 8.68048C66.781 9.8162 67.1206 11.0792 67.1206 12.4694C67.1206 13.8596 66.7901 15.1272 66.1338 16.2724C65.473 17.4175 64.578 18.3223 63.4444 18.9821C62.3108 19.6418 61.0533 19.9717 59.6673 19.9717C58.5659 19.9717 57.547 19.7267 56.597 19.2413C55.6516 18.7559 54.8714 18.0537 54.2656 17.1301H54.2151V19.6277H52.439V0.362854H54.2105Z" fill="#000638"/>
<path d="M80.5353 12.4223C80.5353 11.3996 80.292 10.4477 79.801 9.57117C79.3099 8.69464 78.6444 7.99247 77.7954 7.45996C76.9509 6.93215 76.0285 6.66825 75.0326 6.66825C74.0504 6.66825 73.1417 6.93686 72.3064 7.47409C71.4712 8.01132 70.8057 8.73234 70.3146 9.63715C69.8236 10.542 69.5803 11.5222 69.5803 12.5778C69.5803 13.6004 69.8236 14.557 70.3146 15.443C70.8057 16.3289 71.4712 17.0311 72.3202 17.5542C73.1647 18.0773 74.078 18.3365 75.0601 18.3365C76.0744 18.3365 77.0014 18.0726 77.8367 17.5401C78.672 17.0123 79.3329 16.296 79.8147 15.3912C80.2966 14.4911 80.5353 13.5014 80.5353 12.4223ZM67.8042 12.606C67.8042 11.2347 68.1346 9.96702 68.7955 8.80303C69.4564 7.63903 70.3376 6.72009 71.4482 6.04148C72.5543 5.36288 73.7521 5.02357 75.0371 5.02357C76.3543 5.02357 77.5751 5.36759 78.6903 6.05091C79.8056 6.73894 80.6913 7.65317 81.3384 8.79832C81.9901 9.94346 82.316 11.1781 82.316 12.4977C82.316 13.8502 81.981 15.1037 81.3155 16.2488C80.6454 17.394 79.7551 18.3035 78.6399 18.968C77.5246 19.6371 76.3222 19.9717 75.0371 19.9717C73.7521 19.9717 72.5543 19.6324 71.4482 18.9538C70.3422 18.2752 69.4564 17.3751 68.7955 16.2441C68.1346 15.1225 67.8042 13.9067 67.8042 12.606Z" fill="#000638"/>
<path d="M96.1577 12.5259C96.1577 11.4845 95.9145 10.5137 95.4234 9.60887C94.9323 8.70406 94.2623 7.99247 93.4087 7.45996C92.555 6.93215 91.6142 6.66354 90.5816 6.66354C89.5352 6.66354 88.5806 6.91801 87.7178 7.43168C86.8549 7.94535 86.1757 8.64751 85.6755 9.5429C85.1752 10.4383 84.9274 11.4373 84.9274 12.5495C84.9274 13.6287 85.1706 14.6089 85.6617 15.4901C86.1528 16.3761 86.832 17.0688 87.704 17.5731C88.576 18.0773 89.5443 18.3271 90.6091 18.3271C91.6234 18.3271 92.555 18.0679 93.3995 17.5448C94.2439 17.0264 94.9186 16.3195 95.4142 15.4336C95.9099 14.557 96.1577 13.5863 96.1577 12.5259ZM96.0063 17.1348C95.4326 18.0207 94.6708 18.7135 93.7253 19.2177C92.7799 19.722 91.7381 19.9717 90.6045 19.9717C89.2369 19.9717 87.9794 19.6419 86.8366 18.9821C85.6938 18.3223 84.7943 17.4223 84.1334 16.2865C83.4725 15.1508 83.1421 13.8784 83.1421 12.4694C83.1421 11.0792 83.4817 9.81622 84.1564 8.6805C84.831 7.54478 85.7443 6.6494 86.8825 5.99907C88.0252 5.34874 89.2598 5.02357 90.5953 5.02357C91.7473 5.02357 92.7937 5.27334 93.7391 5.77758C94.6845 6.28182 95.4372 6.98399 95.9971 7.8888H96.0476V5.39115H97.8237V19.6371H96.0476V17.1348H96.0063Z" fill="#000638"/>
<path d="M101.56 5.39115V7.45053H101.61C101.932 6.6871 102.39 6.10746 102.992 5.71632C103.593 5.32518 104.433 5.09427 105.516 5.02829V6.95572H105.493C104.24 7.07824 103.272 7.52593 102.588 8.29879C101.904 9.07165 101.56 10.0471 101.56 11.23V19.6419H99.7837V5.39115H101.56Z" fill="#000638"/>
<path d="M118.325 12.5259C118.325 11.4844 118.081 10.5137 117.59 9.60885C117.099 8.70404 116.429 7.99245 115.576 7.45993C114.722 6.93213 113.781 6.66351 112.749 6.66351C111.684 6.66351 110.72 6.91799 109.857 7.43166C108.994 7.94532 108.32 8.64749 107.829 9.54287C107.338 10.4383 107.094 11.4373 107.094 12.5495C107.094 13.6286 107.338 14.6041 107.829 15.4807C108.32 16.3572 108.994 17.0499 109.857 17.5636C110.72 18.0773 111.693 18.3318 112.771 18.3318C113.786 18.3318 114.717 18.0726 115.562 17.5495C116.406 17.0311 117.081 16.3242 117.577 15.4383C118.077 14.557 118.325 13.5862 118.325 12.5259ZM118.173 17.1348C117.581 18.0396 116.806 18.737 115.851 19.2318C114.896 19.7267 113.868 19.9764 112.771 19.9764C111.404 19.9764 110.146 19.6466 109.004 18.9868C107.861 18.327 106.961 17.4269 106.3 16.2912C105.64 15.1555 105.309 13.8831 105.309 12.4741C105.309 11.0839 105.649 9.82091 106.323 8.68519C106.998 7.54947 107.907 6.65409 109.049 6.00376C110.192 5.35343 111.427 5.02826 112.767 5.02826C113.85 5.02826 114.873 5.27803 115.837 5.77284C116.801 6.26766 117.577 6.95569 118.169 7.84165H118.219V0.362854H119.995V19.6371H118.219V17.1348H118.173Z" fill="#000638"/>
<path d="M34.2695 3.58153V16.4232C34.6229 15.9849 34.9442 15.509 35.2287 15C36.0915 13.4543 36.5229 11.7436 36.5229 9.86805C36.5229 8.06315 36.0778 6.40434 35.192 4.89633C34.9166 4.42507 34.6092 3.99152 34.2695 3.58153Z" fill="#EF4136"/>
</svg>
